<svg width="12" height="12" viewBox="0 0 12 12" fill="none" xmlns="http://www.w3.org/2000/svg">
<rect width="12" height="12" rx="6" fill="#333333"/>
<path d="M2.7998 4.40001C2.7998 4.18783 2.88409 3.98435 3.03412 3.83432C3.18415 3.68429 3.38763 3.60001 3.5998 3.60001H5.9998C6.21198 3.60001 6.41546 3.68429 6.56549 3.83432C6.71552 3.98435 6.7998 4.18783 6.7998 4.40001V7.60001C6.7998 7.81218 6.71552 8.01566 6.56549 8.16569C6.41546 8.31572 6.21198 8.40001 5.9998 8.40001H3.5998C3.38763 8.40001 3.18415 8.31572 3.03412 8.16569C2.88409 8.01566 2.7998 7.81218 2.7998 7.60001V4.40001ZM7.821 4.84241C7.75457 4.8756 7.69869 4.92664 7.65963 4.9898C7.62056 5.05295 7.59984 5.12574 7.5998 5.20001V6.80001C7.59984 6.87427 7.62056 6.94706 7.65963 7.01022C7.69869 7.07337 7.75457 7.12441 7.821 7.15761L8.621 7.55761C8.68197 7.58807 8.74971 7.60245 8.8178 7.59939C8.88589 7.59632 8.95206 7.57591 9.01005 7.54008C9.06803 7.50426 9.1159 7.45422 9.14911 7.3947C9.18232 7.33518 9.19977 7.26816 9.1998 7.20001V4.80001C9.19977 4.73185 9.18232 4.66483 9.14911 4.60531C9.1159 4.5458 9.06803 4.49575 9.01005 4.45993C8.95206 4.4241 8.88589 4.40369 8.8178 4.40062C8.74971 4.39756 8.68197 4.41194 8.621 4.44241L7.821 4.84241Z" fill="#F2F2F2"/>
</svg>
